<svg width="303" height="38" viewBox="0 0 303 38" fill="none" xmlns="http://www.w3.org/2000/svg">
<rect width="303" height="38" rx="8" fill="#D9D9D9"/>
<path d="M127.7 21.7841H139.166V22.7501H127.7V21.7841ZM132.824 19.0681H133.986V22.1901H132.824V19.0681ZM129.086 12.5861H137.752V16.4221H130.276V18.9561H129.128V15.4841H136.604V13.5241H129.086V12.5861ZM129.128 18.4661H138.046V19.4181H129.128V18.4661ZM141.811 12.9921H149.959V13.9301H141.811V12.9921ZM140.579 21.4901H152.017V22.4561H140.579V21.4901ZM149.343 12.9921H150.477V14.2521C150.477 15.8761 150.477 17.6821 150.001 20.4121L148.839 20.3001C149.343 17.7101 149.343 15.8201 149.343 14.2521V12.9921ZM162.656 11.6621H163.832V20.9021H162.656V11.6621ZM155.698 23.0721H164.21V24.0241H155.698V23.0721ZM155.698 19.9501H156.846V23.3941H155.698V19.9501ZM157.042 12.5301C158.932 12.5301 160.332 13.8181 160.332 15.6521C160.332 17.4721 158.932 18.7741 157.042 18.7741C155.152 18.7741 153.738 17.4721 153.738 15.6521C153.738 13.8181 155.152 12.5301 157.042 12.5301ZM157.042 13.5381C155.81 13.5381 154.872 14.4061 154.872 15.6521C154.872 16.8841 155.81 17.7521 157.042 17.7521C158.274 17.7521 159.212 16.8841 159.212 15.6521C159.212 14.4061 158.274 13.5381 157.042 13.5381Z" fill="white"/>
</svg>
