<svg width="299" height="40" viewBox="0 0 299 40" fill="none" xmlns="http://www.w3.org/2000/svg">
<rect x="1" y="0.5" width="297" height="39" rx="9.5" stroke="#D3D3D3"/>
<path d="M30.1371 28.28C29.1571 29.23 28.0871 29.08 27.0571 28.63C25.9671 28.17 24.9671 28.15 23.8171 28.63C22.3771 29.25 21.6171 29.07 20.7571 28.28C15.8771 23.25 16.5971 15.59 22.1371 15.31C23.4871 15.38 24.4271 16.05 25.2171 16.11C26.3971 15.87 27.5271 15.18 28.7871 15.27C30.2971 15.39 31.4371 15.99 32.1871 17.07C29.0671 18.94 29.8071 23.05 32.6671 24.2C32.0971 25.7 31.3571 27.19 30.1271 28.29L30.1371 28.28ZM25.1171 15.25C24.9671 13.02 26.7771 11.18 28.8571 11C29.1471 13.58 26.5171 15.5 25.1171 15.25Z" fill="black"/>
<path d="M103.814 26.0023H101.986L105.314 16.5477H107.428L110.761 26.0023H108.933L106.408 18.4866H106.334L103.814 26.0023ZM103.874 22.2952H108.859V23.6709H103.874V22.2952ZM111.933 28.6613V18.9113H113.576V20.0839H113.673C113.759 19.9116 113.881 19.7285 114.038 19.5346C114.195 19.3376 114.407 19.1699 114.675 19.0314C114.943 18.8898 115.284 18.819 115.7 18.819C116.248 18.819 116.742 18.9591 117.182 19.2391C117.625 19.5161 117.976 19.927 118.234 20.4717C118.496 21.0134 118.627 21.6782 118.627 22.466C118.627 23.2447 118.499 23.9064 118.244 24.4511C117.988 24.9959 117.64 25.4113 117.2 25.6976C116.76 25.9838 116.262 26.1269 115.705 26.1269C115.298 26.1269 114.961 26.0592 114.694 25.9238C114.426 25.7884 114.21 25.6252 114.047 25.4344C113.887 25.2405 113.763 25.0574 113.673 24.8851H113.604V28.6613H111.933ZM113.572 22.4568C113.572 22.9154 113.636 23.317 113.766 23.6617C113.898 24.0064 114.087 24.2757 114.333 24.4696C114.583 24.6604 114.884 24.7558 115.238 24.7558C115.608 24.7558 115.917 24.6573 116.166 24.4604C116.415 24.2603 116.603 23.9879 116.729 23.6432C116.859 23.2955 116.923 22.9 116.923 22.4568C116.923 22.0167 116.86 21.6258 116.734 21.2842C116.608 20.9426 116.42 20.6748 116.171 20.481C115.922 20.2871 115.611 20.1901 115.238 20.1901C114.881 20.1901 114.578 20.284 114.329 20.4717C114.08 20.6595 113.89 20.9226 113.761 21.2611C113.635 21.5997 113.572 21.9982 113.572 22.4568ZM120.058 28.6613V18.9113H121.701V20.0839H121.798C121.884 19.9116 122.006 19.7285 122.163 19.5346C122.32 19.3376 122.532 19.1699 122.8 19.0314C123.068 18.8898 123.409 18.819 123.825 18.819C124.373 18.819 124.867 18.9591 125.307 19.2391C125.75 19.5161 126.101 19.927 126.359 20.4717C126.621 21.0134 126.752 21.6782 126.752 22.466C126.752 23.2447 126.624 23.9064 126.369 24.4511C126.113 24.9959 125.765 25.4113 125.325 25.6976C124.885 25.9838 124.387 26.1269 123.83 26.1269C123.423 26.1269 123.086 26.0592 122.819 25.9238C122.551 25.7884 122.335 25.6252 122.172 25.4344C122.012 25.2405 121.888 25.0574 121.798 24.8851H121.729V28.6613H120.058ZM121.697 22.4568C121.697 22.9154 121.761 23.317 121.891 23.6617C122.023 24.0064 122.212 24.2757 122.458 24.4696C122.708 24.6604 123.009 24.7558 123.363 24.7558C123.733 24.7558 124.042 24.6573 124.291 24.4604C124.54 24.2603 124.728 23.9879 124.854 23.6432C124.984 23.2955 125.048 22.9 125.048 22.4568C125.048 22.0167 124.985 21.6258 124.859 21.2842C124.733 20.9426 124.545 20.6748 124.296 20.481C124.047 20.2871 123.736 20.1901 123.363 20.1901C123.006 20.1901 122.703 20.284 122.454 20.4717C122.205 20.6595 122.015 20.9226 121.886 21.2611C121.76 21.5997 121.697 21.9982 121.697 22.4568ZM129.854 16.5477V26.0023H128.183V16.5477H129.854ZM134.712 26.1408C134.001 26.1408 133.387 25.993 132.87 25.6976C132.356 25.399 131.96 24.9774 131.683 24.4327C131.406 23.8848 131.268 23.2401 131.268 22.4984C131.268 21.7689 131.406 21.1288 131.683 20.5779C131.963 20.0239 132.354 19.593 132.856 19.2853C133.358 18.9744 133.947 18.819 134.624 18.819C135.061 18.819 135.473 18.8898 135.861 19.0314C136.252 19.1699 136.597 19.3853 136.895 19.6777C137.197 19.9701 137.434 20.3425 137.606 20.7949C137.779 21.2442 137.865 21.7797 137.865 22.4014V22.9138H132.053V21.7874H136.263C136.26 21.4673 136.191 21.1827 136.055 20.9334C135.92 20.681 135.73 20.4825 135.487 20.3378C135.247 20.1932 134.967 20.1209 134.647 20.1209C134.305 20.1209 134.005 20.204 133.747 20.3702C133.488 20.5333 133.287 20.7487 133.142 21.0165C133.001 21.2811 132.928 21.572 132.925 21.889V22.8723C132.925 23.2847 133.001 23.6386 133.151 23.9341C133.302 24.2265 133.513 24.4511 133.784 24.6081C134.055 24.762 134.372 24.8389 134.735 24.8389C134.978 24.8389 135.198 24.8051 135.395 24.7373C135.592 24.6666 135.763 24.5635 135.907 24.428C136.052 24.2926 136.161 24.1249 136.235 23.9248L137.796 24.1003C137.697 24.5127 137.509 24.8728 137.232 25.1805C136.958 25.4852 136.608 25.7222 136.18 25.8915C135.752 26.0577 135.263 26.1408 134.712 26.1408ZM138.953 24.4293H149.847V25.8333H138.953V24.4293ZM143.516 22.1543H145.245V25.0013H143.516V22.1543ZM140.175 15.9013H148.625V19.9053H141.917V21.9333H140.201V18.5533H146.909V17.2663H140.175V15.9013ZM140.201 21.2443H148.898V22.6353H140.201V21.2443ZM154.137 24.4293H165.031V25.8333H154.137V24.4293ZM158.7 22.1543H160.429V25.0013H158.7V22.1543ZM155.359 15.9013H163.809V19.9053H157.101V21.9333H155.385V18.5533H162.093V17.2663H155.359V15.9013ZM155.385 21.2443H164.082V22.6353H155.385V21.2443ZM167.201 16.2263H174.832V17.5913H167.201V16.2263ZM166.096 24.1823H176.977V25.5863H166.096V24.1823ZM173.922 16.2263H175.638V17.6563C175.638 19.3463 175.638 20.9843 175.209 23.4543L173.48 23.3113C173.922 20.9973 173.922 19.2813 173.922 17.6563V16.2263ZM186.309 15.1343H188.051V23.7793H186.309V15.1343ZM180.03 25.5733H188.35V26.9513H180.03V25.5733ZM180.03 22.9083H181.759V26.1323H180.03V22.9083ZM181.499 15.8883C183.345 15.8883 184.762 17.1623 184.762 18.9433C184.762 20.7113 183.345 21.9983 181.499 21.9983C179.653 21.9983 178.223 20.7113 178.223 18.9433C178.223 17.1623 179.653 15.8883 181.499 15.8883ZM181.499 17.3833C180.602 17.3833 179.913 17.9553 179.913 18.9433C179.913 19.9183 180.602 20.4903 181.499 20.4903C182.383 20.4903 183.072 19.9183 183.072 18.9433C183.072 17.9553 182.383 17.3833 181.499 17.3833Z" fill="black"/>
</svg>
