<svg width="299" height="40" viewBox="0 0 299 40" fill="none" xmlns="http://www.w3.org/2000/svg">
<rect x="1" y="0.5" width="297" height="39" rx="9.5" stroke="#D3D3D3"/>
<path fill-rule="evenodd" clip-rule="evenodd" d="M25 12.9999C20.8577 12.9999 17.5 15.5941 17.5 18.7935C17.5 20.7833 18.7987 22.5375 20.7763 23.5808L19.9442 26.6204C19.8707 26.889 20.1779 27.1031 20.4137 26.9474L24.0611 24.5402C24.3689 24.5699 24.6818 24.5872 25 24.5872C29.1421 24.5872 32.5 21.9931 32.5 18.7935C32.5 15.5941 29.1421 12.9999 25 12.9999Z" fill="black"/>
<path d="M106.57 14.276H108.26C108.26 17.994 107.376 21.088 102.891 23.363L101.968 22.05C105.712 20.165 106.57 17.864 106.57 14.484V14.276ZM102.709 14.276H107.597V15.641H102.709V14.276ZM106.609 17.227V18.553L102.293 18.969L102.085 17.487L106.609 17.227ZM109.716 13.106H111.458V25.144H109.716V13.106ZM111.003 17.708H113.122V19.125H111.003V17.708ZM118.529 14.276H120.219C120.219 17.994 119.335 21.088 114.85 23.363L113.927 22.05C117.671 20.165 118.529 17.864 118.529 14.484V14.276ZM114.668 14.276H119.556V15.641H114.668V14.276ZM118.568 17.227V18.553L114.252 18.969L114.044 17.487L118.568 17.227ZM121.675 13.106H123.417V25.144H121.675V13.106ZM122.962 17.708H125.081V19.125H122.962V17.708ZM130.514 19.892H132.243V22.635H130.514V19.892ZM131.385 13.73C133.959 13.73 135.883 15.043 135.883 17.045C135.883 19.073 133.959 20.373 131.385 20.373C128.811 20.373 126.887 19.073 126.887 17.045C126.887 15.043 128.811 13.73 131.385 13.73ZM131.385 15.095C129.734 15.095 128.59 15.823 128.59 17.045C128.59 18.293 129.734 19.008 131.385 19.008C133.036 19.008 134.18 18.293 134.18 17.045C134.18 15.823 133.036 15.095 131.385 15.095ZM125.951 22.362H136.845V23.766H125.951V22.362ZM137.91 22.427H148.804V23.831H137.91V22.427ZM142.473 20.152H144.202V22.999H142.473V20.152ZM139.132 13.899H147.582V17.903H140.874V19.931H139.158V16.551H145.866V15.264H139.132V13.899ZM139.158 19.242H147.855V20.633H139.158V19.242ZM153.094 22.427H163.988V23.831H153.094V22.427ZM157.657 20.152H159.386V22.999H157.657V20.152ZM154.316 13.899H162.766V17.903H156.058V19.931H154.342V16.551H161.05V15.264H154.316V13.899ZM154.342 19.242H163.039V20.633H154.342V19.242ZM166.158 14.224H173.789V15.589H166.158V14.224ZM165.053 22.18H175.934V23.584H165.053V22.18ZM172.879 14.224H174.595V15.654C174.595 17.344 174.595 18.982 174.166 21.452L172.437 21.309C172.879 18.995 172.879 17.279 172.879 15.654V14.224ZM185.267 13.132H187.009V21.777H185.267V13.132ZM178.988 23.571H187.308V24.949H178.988V23.571ZM178.988 20.906H180.717V24.13H178.988V20.906ZM180.457 13.886C182.303 13.886 183.72 15.16 183.72 16.941C183.72 18.709 182.303 19.996 180.457 19.996C178.611 19.996 177.181 18.709 177.181 16.941C177.181 15.16 178.611 13.886 180.457 13.886ZM180.457 15.381C179.56 15.381 178.871 15.953 178.871 16.941C178.871 17.916 179.56 18.488 180.457 18.488C181.341 18.488 182.03 17.916 182.03 16.941C182.03 15.953 181.341 15.381 180.457 15.381Z" fill="black"/>
</svg>
